<svg width="24" height="20" viewBox="0 0 24 20" fill="none" xmlns="http://www.w3.org/2000/svg">
<path d="M23.7596 4.91151C23.7596 4.83136 23.5192 3.06846 22.7579 2.22706C21.8364 1.2254 20.8347 1.1052 20.3139 1.0651H20.1536C16.9082 0.824704 12.0602 0.784653 11.98 0.784653C11.94 0.784653 7.05181 0.824704 3.84645 1.14525H3.72625C3.16526 1.1853 2.1636 1.3055 1.28215 2.30716C0.480801 3.14856 0.2404 4.95156 0.2404 5.03171C0.2404 5.03171 0 7.07512 0 9.11852V11.0017C0 13.005 0.2404 15.0484 0.2404 15.0885C0.2404 15.1686 0.480801 16.9315 1.24205 17.7729C2.08346 18.7345 3.08511 18.8547 3.72621 18.9349C3.84641 18.9349 3.92656 18.9349 4.04676 18.9749C5.88981 19.1352 11.7396 19.2153 11.98 19.2153C12.02 19.2153 16.9082 19.2153 20.1536 18.8547H20.2738C20.8347 18.8147 21.8364 18.6945 22.7178 17.6928C23.5192 16.8514 23.7596 15.0484 23.7596 14.9682C23.7596 14.9682 24 12.9248 24 10.8814V8.99832C24 6.99497 23.7596 4.95156 23.7596 4.91151ZM23.1986 10.9616C23.1986 12.9649 22.9582 14.9682 22.9582 14.9682C22.8781 15.409 22.6377 16.6911 22.1168 17.252C21.4357 18.0534 20.6344 18.1335 20.1936 18.1736H20.0734C16.8681 18.414 12.02 18.414 11.98 18.414C11.9399 18.414 5.92991 18.3338 4.16696 18.1335C4.04676 18.1335 3.92656 18.0935 3.80636 18.0935C3.24541 18.0534 2.4441 17.9332 1.803 17.212C1.3222 16.6912 1.04175 15.409 1.00165 14.9683C1.00165 14.9282 0.761253 12.9249 0.761253 10.9616V9.07847C0.761253 7.07512 1.00165 5.07181 1.00165 5.07181C1.0417 4.63106 1.3222 3.34896 1.803 2.78801C2.52421 1.98666 3.28546 1.90651 3.76626 1.86646H3.88646C7.09181 1.62605 11.9399 1.586 11.9799 1.586C12.02 1.586 16.8681 1.62605 20.0734 1.86646H20.2336C20.6744 1.90651 21.4757 1.98666 22.1569 2.78801C22.6377 3.34896 22.8781 4.63106 22.9582 5.07181C22.9983 5.15196 23.1986 7.15527 23.1986 9.07847V10.9616H23.1986Z" fill="black"/>
<path d="M16.9881 10.0401L9.37541 5.59267C9.25521 5.51252 9.09496 5.51252 8.97476 5.59267C8.85456 5.67282 8.77441 5.79302 8.77441 5.95327V14.6477C8.77441 14.808 8.85456 14.9282 8.97476 15.0083C9.05491 15.0484 9.09496 15.0484 9.17511 15.0484C9.25526 15.0484 9.29531 15.0484 9.37546 15.0083L16.9881 10.7613C17.1083 10.6811 17.1885 10.5609 17.1885 10.4007C17.1885 10.2404 17.1083 10.1202 16.9881 10.0401ZM9.57576 13.9666V6.63438L15.9864 10.4006L9.57576 13.9666Z" fill="black"/>
</svg>
