<svg width="703" height="207" viewBox="0 0 703 207" fill="none" xmlns="http://www.w3.org/2000/svg">
<path d="M88.2778 96.198C89.1195 80.4641 93.5926 65.1392 101.346 51.4257C109.1 37.7123 119.923 25.9833 132.967 17.1587C116.776 11.0019 99.1482 9.67795 82.2202 13.3473C65.2922 17.0167 49.7915 25.5219 37.5974 37.8316C22.0866 53.5206 12.7894 74.3078 11.431 96.3359L88.2778 96.198ZM145.156 22.8094C137.973 26.9172 131.372 31.9695 125.531 37.8316C110.025 53.545 100.75 74.3602 99.433 96.4048H190.74C189.446 74.3207 180.142 53.4687 164.574 37.7627C158.812 31.9355 152.278 26.9272 145.156 22.8782V22.8094ZM88.2778 107.706H0.000324286V101.986C-0.0677355 74.9415 10.5797 48.9724 29.6098 29.7692C44.404 14.8212 63.5141 4.89806 84.2447 1.3992C104.975 -2.09965 126.281 1.00236 145.156 10.2678C166.723 -0.239942 191.331 -2.69552 214.548 3.34338C237.764 9.38229 258.063 23.5187 271.788 43.2066L262.629 50.0975C254.318 38.2459 243.291 28.5581 230.472 21.8445C219.312 15.9552 207.034 12.4934 194.443 11.6858C181.852 10.8783 169.233 12.7433 157.412 17.1587C171.231 26.577 182.54 39.2318 190.355 54.022C198.171 68.8123 202.257 85.2899 202.257 102.021C202.257 118.752 198.171 135.229 190.355 150.02C182.54 164.81 171.231 177.465 157.412 186.883C175.946 193.93 196.293 194.621 215.26 188.846C234.228 183.072 250.744 171.16 262.216 154.978L271.374 161.869C262.068 174.834 249.851 185.431 235.705 192.809C221.792 200.012 206.388 203.857 190.725 204.036C175.062 204.216 159.574 200.725 145.5 193.843C131.38 200.759 115.831 204.251 100.111 204.036C84.392 203.82 68.9442 199.904 55.0188 192.603C40.5816 185.06 28.1794 174.138 18.8677 160.766L28.026 153.875C36.3376 165.727 47.364 175.415 60.1832 182.128C71.3823 187.961 83.6875 191.356 96.2908 192.093C108.894 192.829 121.511 190.889 133.312 186.401C120.259 177.569 109.43 165.829 101.676 152.103C93.9215 138.377 89.4533 123.038 88.6221 107.292L88.2778 107.706ZM191.085 107.292H99.6396C100.849 129.362 110.054 150.235 125.531 166.003C131.316 171.824 137.845 176.852 144.949 180.957C152.076 176.887 158.61 171.855 164.367 166.003C179.875 150.396 189.176 129.674 190.534 107.706" fill="#EE1C1F"/>
<path d="M377 124.277C371.032 121.174 362.136 118.568 352.114 118.568C327.116 118.568 310 134.083 310 162.134C310 190.433 326.891 206.568 351.101 206.568C362.136 206.568 370.919 202.969 375.086 199.245C375.536 197.756 375.987 193.411 376.099 191.301L375.086 190.805C370.469 196.639 362.699 200.734 353.128 200.734C335.224 200.734 321.598 189.191 321.598 162.134C321.598 134.828 334.886 123.409 352.339 123.409C363.15 123.409 370.018 128.249 372.496 135.324L374.297 135.076C375.086 130.856 375.874 127.38 377 124.277Z" fill="#EE1C1F"/>
<path d="M412.78 206.568C412.284 196.524 411.912 180.28 411.912 169.12V154.364C411.912 143.204 412.284 122.248 412.78 113.568C411.416 113.692 408.812 113.816 406.952 113.816C404.968 113.816 402.364 113.692 401 113.568C401.496 122.248 401.868 143.204 401.868 154.364V169.12C401.868 180.28 401.496 196.648 401 206.568C402.364 206.444 404.968 206.32 406.952 206.32C408.812 206.32 411.416 206.444 412.78 206.568Z" fill="#EE1C1F"/>
<path d="M562.144 126.14C562.144 122.544 559.168 119.568 555.572 119.568C551.976 119.568 549 122.544 549 126.14C549 129.736 551.976 132.712 555.572 132.712C559.168 132.712 562.144 129.736 562.144 126.14ZM561.4 206.616C560.78 199.548 560.532 185.908 560.532 178.468V173.384C560.532 165.944 560.78 155.28 561.4 147.964C560.036 148.088 557.556 148.212 555.572 148.212C553.588 148.212 550.984 148.088 549.744 147.964C550.364 155.032 550.612 165.944 550.612 173.384V178.468C550.612 185.908 550.364 199.796 549.744 206.616C550.984 206.492 553.588 206.368 555.572 206.368C557.556 206.368 560.036 206.492 561.4 206.616Z" fill="#EE1C1F"/>
<path d="M525.336 206.336C524.964 201.376 524.716 190.464 524.716 185.008V183.52C524.716 177.692 525.088 171.988 525.088 167.896C525.088 155.992 520.624 146.568 504.752 146.568C496.568 146.568 489.5 150.908 485.16 158.224H484.664C484.664 154.256 484.788 150.908 485.036 147.684C483.424 147.808 481.44 147.932 479.828 147.932C477.844 147.932 476.232 147.808 474 147.684C474.62 155.868 474.868 165.664 474.868 173.104V178.188C474.868 185.628 474.62 199.392 474 206.336C475.364 206.212 477.844 206.088 479.828 206.088C481.812 206.088 484.292 206.212 485.656 206.336C485.036 199.268 484.788 188.728 484.788 181.288V172.98C484.788 160.332 490.988 152.768 501.652 152.768C513.06 152.768 514.796 162.688 514.796 171.368V175.088C514.796 184.388 514.548 198.648 514.052 206.336C515.168 206.212 517.772 206.088 519.756 206.088C521.616 206.088 524.22 206.212 525.336 206.336Z" fill="#EE1C1F"/>
<path d="M450.144 126.14C450.144 122.544 447.168 119.568 443.572 119.568C439.976 119.568 437 122.544 437 126.14C437 129.736 439.976 132.712 443.572 132.712C447.168 132.712 450.144 129.736 450.144 126.14ZM449.4 206.616C448.78 199.548 448.532 185.908 448.532 178.468V173.384C448.532 165.944 448.78 155.28 449.4 147.964C448.036 148.088 445.556 148.212 443.572 148.212C441.588 148.212 438.984 148.088 437.744 147.964C438.364 155.032 438.612 165.944 438.612 173.384V178.468C438.612 185.908 438.364 199.796 437.744 206.616C438.984 206.492 441.588 206.368 443.572 206.368C445.556 206.368 448.036 206.492 449.4 206.616Z" fill="#EE1C1F"/>
<path d="M638.46 193.928L637.096 193.308C633.376 198.64 627.176 201.616 619.612 201.616C605.848 201.616 598.532 191.448 598.532 176.196C598.532 162.556 604.484 149.908 619.24 149.908C627.3 149.908 632.384 154.248 633.872 161.192L635.732 161.068C636.352 157.596 637.592 153.256 638.708 150.652C635.36 148.048 627.548 145.568 618.744 145.568C602.748 145.568 587 154.744 587 176.196C587 198.392 602.376 206.948 617.132 206.948C625.564 206.948 632.88 204.468 637.22 200.624C637.344 199.012 637.84 195.416 638.46 193.928Z" fill="#EE1C1F"/>
<path d="M702.184 186.984C702.184 178.056 696.356 173.964 686.312 170.74C679.244 168.508 674.532 165.904 674.532 159.332C674.532 152.388 679.616 149.66 685.32 149.66C692.14 149.66 694.744 153.132 696.108 158.464H697.844C698.464 155.364 699.456 150.9 700.448 148.296C697.224 146.808 691.396 145.568 685.692 145.568C676.392 145.568 665.728 150.156 665.728 162.432C665.728 172.848 672.052 175.948 679.368 178.552C688.296 181.652 692.636 183.884 692.636 191.2C692.636 199.012 686.932 202.36 680.36 202.36C674.408 202.36 668.704 199.384 666.968 192.812H665.232C664.116 196.532 663.248 200.624 663 203.228C665.852 204.84 672.548 206.7 678.5 206.7C691.396 206.7 702.184 199.756 702.184 186.984Z" fill="#EE1C1F"/>
<path d="M352.196 88.816C352.072 86.956 352.072 85.84 352.072 85.096C352.072 84.352 352.072 83.236 352.196 81.252C343.268 82.864 333.472 83.36 322.56 83.36C322.312 78.524 322.064 62.528 322.064 51.492V46.78C336.572 46.78 344.632 47.028 349.22 47.772C349.096 46.532 349.096 45.168 349.096 44.052C349.096 42.936 349.096 41.696 349.22 40.332C344.632 40.952 336.572 41.572 322.064 41.572V37.604C322.064 27.684 322.312 15.16 322.56 9.456C334.34 9.456 346.244 10.076 351.576 11.192C351.452 9.952 351.452 8.588 351.452 7.596C351.452 6.48 351.452 5.364 351.576 4C343.392 4.248 330.868 4.372 322.684 4.372C318.84 4.372 313.26 4.124 310.408 4C311.028 13.92 311.4 27.808 311.4 38.968V51.368C311.4 62.528 311.028 78.896 310.408 88.816C313.26 88.692 320.204 88.444 323.304 88.444C333.844 88.444 344.508 88.692 352.196 88.816Z" fill="#EE1C1F"/>
<path d="M429.412 88.568C421.228 78.276 413.044 67.364 405.852 56.948C412.92 48.02 421.476 37.604 428.048 30.412L427.676 30.164C426.312 30.288 424.204 30.412 422.84 30.412C421.724 30.412 420.236 30.288 419.244 30.164C415.772 35.868 408.828 46.036 403.124 53.352C398.04 45.912 392.832 37.728 388.244 30.164C386.756 30.288 384.152 30.412 382.54 30.412C380.432 30.412 377.332 30.288 375.348 30.164L374.976 30.412C382.044 39.34 390.476 51.12 396.8 60.42C389.484 69.968 381.3 80.012 373.984 88.568L374.232 88.816C375.348 88.692 377.456 88.568 378.944 88.568C380.308 88.568 381.796 88.692 382.912 88.816C387.376 81.5 393.824 71.952 399.528 64.14C405.232 72.324 410.936 80.756 415.772 88.816C417.632 88.692 420.236 88.568 421.848 88.568C423.336 88.568 427.056 88.692 429.04 88.816L429.412 88.568Z" fill="#EE1C1F"/>
<path d="M487.68 90.18C507.024 90.18 515.952 74.432 515.952 59.056C515.952 43.68 508.884 28.552 490.532 28.552C478.008 28.552 471.56 36.364 468.832 41.82H468.212C468.212 38.844 468.584 33.388 468.832 30.164C467.22 30.288 465.112 30.412 463.5 30.412C461.516 30.412 459.904 30.288 457.672 30.164C458.292 38.472 458.664 56.204 458.664 63.644V76.168C458.664 88.568 458.168 113.368 457.548 123.164C459.036 123.04 461.64 122.916 463.624 122.916C465.608 122.916 468.088 123.04 469.452 123.164C468.708 113.368 468.46 100.968 468.46 88.816V81.624H468.956C471.808 85.84 477.76 90.18 487.68 90.18ZM504.42 59.304C504.42 73.564 498.22 85.344 485.572 85.344C474.288 85.344 468.212 76.912 468.212 63.396C468.212 57.692 468.46 52.484 469.824 48.02C472.056 40.456 478.628 34.628 486.936 34.628C499.708 34.628 504.42 47.028 504.42 59.304Z" fill="#EE1C1F"/>
<path d="M593.884 53.972C593.884 40.332 586.444 28.552 568.96 28.552C550.484 28.552 539.696 42.068 539.696 60.048C539.696 79.144 551.724 90.428 569.828 90.428C577.888 90.428 585.824 88.072 590.784 84.476C590.908 82.988 591.404 79.888 592.024 77.904L590.784 77.284C586.692 82.368 579.748 85.344 572.308 85.344C558.296 85.344 551.104 74.928 551.104 62.28C551.104 61.164 551.104 59.924 551.228 58.684H565.612C572.184 58.684 583.096 58.808 592.768 58.932L593.512 58.188C593.76 56.824 593.884 55.088 593.884 53.972ZM583.344 53.972C579.376 54.096 570.448 54.22 565.24 54.22H551.476C551.972 45.292 556.436 32.768 568.712 32.768C581.236 32.768 583.344 45.044 583.344 53.972Z" fill="#EE1C1F"/>
<path d="M658.144 30.784L657.896 30.164C656.408 29.668 654.052 29.296 651.82 29.296C644.752 29.296 638.924 33.636 634.584 42.936H634.088C634.088 39.34 634.336 33.388 634.708 30.164C633.592 30.288 631.608 30.412 629.624 30.412C627.64 30.412 625.036 30.288 623.796 30.164C624.416 37.356 624.664 48.144 624.664 55.584V60.668C624.664 68.108 624.416 81.996 623.796 88.816C625.036 88.692 627.64 88.568 629.624 88.568C631.608 88.568 634.088 88.692 635.452 88.816C634.832 81.748 634.584 68.356 634.584 60.916V55.708C634.584 45.912 639.048 37.48 647.852 37.48C650.332 37.48 652.936 37.976 654.672 39.34L655.416 39.216C655.912 36.736 657.276 32.644 658.144 30.784Z" fill="#EE1C1F"/>
<path d="M703 85.7371L702.777 82.7713L702.331 82.5241C700.993 83.2656 698.206 84.007 695.864 84.007C689.397 84.007 688.171 78.6932 688.171 69.9192C688.171 59.4152 688.394 45.9452 688.84 35.3176H702.554V30.8688H688.951C688.951 27.1615 689.286 18.8818 689.732 13.9387L689.063 13.568C686.944 15.1745 682.261 17.2753 679.697 18.1404C679.92 23.207 679.92 28.3973 679.92 30.8688H671V35.3176H679.808C679.808 49.7761 679.139 65.3469 679.139 74.368C679.139 84.007 681.927 89.568 690.289 89.568C694.192 89.568 699.321 88.3322 703 85.7371Z" fill="#EE1C1F"/>
</svg>
