<svg width="46" height="60" viewBox="0 0 46 60" fill="none" xmlns="http://www.w3.org/2000/svg">
<g clip-path="url(#clip0_1755_44)">
<path fill-rule="evenodd" clip-rule="evenodd" d="M12.0063 40.1476H33.0559V18.7958H12.0063V40.1476Z" fill="white"/>
<path fill-rule="evenodd" clip-rule="evenodd" d="M7.44481 50.3225C7.44481 51.1985 7.09142 51.9038 6.39168 52.434C5.75039 52.9205 4.98354 53.1649 4.08194 53.1649C3.69879 53.1649 3.1246 53.0585 2.3675 52.8485C2.03359 52.7569 1.83877 52.7105 1.78573 52.7105C1.64827 52.7105 1.53733 52.7749 1.45345 52.8955H1.17528L0.825684 50.3705H1.14119C1.30895 51.0655 1.63853 51.6229 2.1283 52.0478C2.63538 52.4907 3.23554 52.7127 3.93258 52.7127C4.55331 52.7127 5.08041 52.5475 5.50794 52.2158C5.97498 51.8455 6.21039 51.3633 6.21039 50.754C6.21039 50.1922 5.89488 49.6369 5.2563 49.086C5.0263 48.8902 4.47538 48.5084 3.60733 47.9515C2.75119 47.4087 2.15535 46.9724 1.81874 46.6342C1.20775 46.0336 0.90686 45.39 0.90686 44.7082C0.90686 43.7575 1.38797 43.0604 2.3491 42.612C2.79557 42.3987 3.29507 42.2951 3.8487 42.2951C4.39041 42.2951 4.94782 42.3916 5.51606 42.588C5.77095 42.6736 5.96199 42.7162 6.08808 42.7162C6.20498 42.7162 6.30834 42.6611 6.39168 42.5465H6.65361L6.93665 44.6618H6.65361C6.43281 44.0798 6.08808 43.6162 5.62051 43.2605C5.13399 42.8869 4.59281 42.7004 3.99373 42.7004C3.47853 42.7004 3.05479 42.8269 2.71493 43.0827C2.33773 43.3631 2.15211 43.7564 2.15211 44.2598C2.15211 44.8124 2.46058 45.3513 3.08834 45.8765C3.27992 46.038 3.82326 46.404 4.71945 46.9664C5.57613 47.5069 6.18279 47.9591 6.54321 48.3218C7.14608 48.9398 7.44481 49.6075 7.44481 50.3225ZM24.5942 42.8618C23.9653 42.8618 23.5394 43.0342 23.3218 43.3822C23.1838 43.59 23.0307 43.9195 22.8597 44.3755L19.5379 53.1655H18.7462L16.5766 48.0213L14.498 53.1655H13.6878L10.2578 44.3084C10.036 43.7395 9.80651 43.3631 9.56839 43.1695C9.3043 42.9665 8.88543 42.8618 8.30366 42.8618H8.20895V42.5471H12.4848V42.8618H12.2088C11.6054 42.8618 11.3066 43.0565 11.3066 43.4487C11.3066 43.578 11.3413 43.7302 11.4116 43.9124L14.419 51.5307L16.2021 47.0891L14.8606 43.8142C14.6987 43.4182 14.4806 43.1504 14.2025 43.0189C13.9828 42.9142 13.6342 42.8618 13.1607 42.8618V42.5471H19.933V42.8618C19.499 42.8618 19.1721 42.9142 18.9491 43.0189C18.6591 43.1487 18.4415 43.3904 18.2965 43.7482L17.2407 46.3424L19.4081 51.5307L22.3299 43.8142C22.4197 43.5764 22.4489 43.3904 22.4148 43.2622C22.351 43.0189 21.9316 42.8869 21.1745 42.8618V42.5471H24.5942V42.8618ZM17.6043 43.578C17.6611 43.4384 17.6887 43.3184 17.6887 43.2213C17.6887 42.9824 17.5237 42.8618 17.1936 42.8618H16.4992C16.1475 42.8618 15.9689 42.972 15.9689 43.1869C15.9689 43.2682 15.9938 43.3696 16.0403 43.4825L16.8629 45.4075L17.6043 43.578ZM29.4664 52.8982H25.4503V52.5829C25.9628 52.5605 26.3054 52.4465 26.4661 52.2415C26.6171 52.0533 26.6923 51.6895 26.6923 51.1516V44.0678C26.6923 43.6162 26.5938 43.3031 26.4028 43.1335C26.229 42.9807 25.9119 42.8902 25.4503 42.8618V42.5465H29.4664V42.8618C28.7726 42.8618 28.3494 43.0325 28.2006 43.3696C28.1086 43.5627 28.062 43.8458 28.062 44.2124V51.2651C28.062 51.9207 28.2395 52.3211 28.6021 52.4607C28.8083 52.5415 29.0946 52.5829 29.4664 52.5829V52.8982ZM37.5494 50.3225C37.5494 51.1985 37.1976 51.9038 36.4925 52.434C35.8555 52.9205 35.087 53.1649 34.1865 53.1649C33.8017 53.1649 33.2286 53.0585 32.4742 52.8485C32.1371 52.7569 31.9455 52.7105 31.8925 52.7105C31.7528 52.7105 31.6435 52.7749 31.5596 52.8955H31.2782L30.9297 50.3705H31.2479C31.4135 51.0655 31.7447 51.6229 32.2307 52.0478C32.7421 52.4907 33.3417 52.7127 34.0371 52.7127C34.6579 52.7127 35.1839 52.5475 35.6109 52.2158C36.0822 51.8455 36.315 51.3633 36.315 50.754C36.315 50.1922 35.9978 49.6369 35.3603 49.086C35.1303 48.8902 34.5837 48.5084 33.7108 47.9515C32.8617 47.4087 32.2626 46.9724 31.9222 46.6342C31.3134 46.0336 31.013 45.39 31.013 44.7082C31.013 43.7575 31.4942 43.0604 32.4537 42.612C32.8996 42.3987 33.3996 42.2951 33.9549 42.2951C34.4971 42.2951 35.0518 42.3916 35.6206 42.588C35.8739 42.6736 36.0676 42.7162 36.1926 42.7162C36.3128 42.7162 36.4145 42.6611 36.4925 42.5465H36.7582L37.0434 44.6618H36.7582C36.5379 44.0798 36.1926 43.6162 35.7262 43.2605C35.238 42.8869 34.6979 42.7004 34.0994 42.7004C33.5847 42.7004 33.1599 42.8269 32.8195 43.0827C32.4423 43.3631 32.2551 43.7564 32.2551 44.2598C32.2551 44.8124 32.5651 45.3513 33.1918 45.8765C33.3839 46.038 33.9273 46.404 34.8278 46.9664C35.6839 47.5069 36.2884 47.9591 36.6483 48.3218C37.249 48.9398 37.5494 49.6075 37.5494 50.3225ZM45.6438 50.3225C45.6438 51.1985 45.2942 51.9038 44.5874 52.434C43.952 52.9205 43.1814 53.1649 42.2803 53.1649C41.8972 53.1649 41.3252 53.0585 40.5664 52.8485C40.232 52.7569 40.041 52.7105 39.9852 52.7105C39.8451 52.7105 39.7363 52.7749 39.6562 52.8955H39.3715L39.0262 50.3705H39.3434C39.5068 51.0655 39.838 51.6229 40.3262 52.0478C40.8338 52.4907 41.4372 52.7127 42.1315 52.7127C42.7512 52.7127 43.2783 52.5475 43.7058 52.2158C44.1755 51.8455 44.4099 51.3633 44.4099 50.754C44.4099 50.1922 44.0917 49.6369 43.4579 49.086C43.2252 48.8902 42.677 48.5084 41.8046 47.9515C40.9545 47.4087 40.3559 46.9724 40.0166 46.6342C39.4078 46.0336 39.1063 45.39 39.1063 44.7082C39.1063 43.7575 39.5885 43.0604 40.5486 42.612C40.9945 42.3987 41.4946 42.2951 42.0482 42.2951C42.5904 42.2951 43.1451 42.3916 43.7145 42.588C43.9688 42.6736 44.1593 42.7162 44.287 42.7162C44.4055 42.7162 44.5089 42.6611 44.5874 42.5465H44.852L45.1351 44.6618H44.852C44.6307 44.0798 44.287 43.6162 43.8211 43.2605C43.3335 42.8869 42.7923 42.7004 42.1927 42.7004C41.6786 42.7004 41.2521 42.8269 40.9139 43.0827C40.5367 43.3631 40.3478 43.7564 40.3478 44.2598C40.3478 44.8124 40.6601 45.3513 41.2884 45.8765C41.4783 46.038 42.0238 46.404 42.9195 46.9664C43.7745 47.5069 44.3834 47.9591 44.7416 48.3218C45.345 48.9398 45.6438 49.6075 45.6438 50.3225Z" fill="#474B56"/>
<path fill-rule="evenodd" clip-rule="evenodd" d="M22.6212 0.219833L0 40.3146L18.9996 40.2333V32.7109H12.1792V25.8349H18.9996V18.9786H25.8228V25.8349H32.6427V32.7109H25.8228V40.1875L45.5427 40.0577L22.6212 0.219833Z" fill="#D9222A"/>
<mask id="mask0_1755_44" style="mask-type:alpha" maskUnits="userSpaceOnUse" x="0" y="53" width="27" height="7">
<path d="M0.46875 59.4218H26.7218V53.8576H0.46875V59.4218Z" fill="white"/>
</mask>
<g mask="url(#mask0_1755_44)">
<path fill-rule="evenodd" clip-rule="evenodd" d="M6.0683 57.1811C5.67379 57.2084 5.4768 57.3889 5.4768 57.7233V58.914C4.78842 59.2751 4.03077 59.4545 3.1979 59.4545C2.66809 59.4545 2.19456 59.3362 1.77569 59.1038C1.34129 58.8604 0.992028 58.4878 0.775597 58.0369C0.574672 57.6405 0.469533 57.2019 0.46875 56.7567C0.46875 56.0198 0.707409 55.3675 1.19393 54.8035C1.72536 54.1735 2.47435 53.8576 3.43386 53.8576C3.86355 53.8576 4.35223 53.9351 4.89557 54.0905C5.03141 54.1298 5.10826 54.15 5.12666 54.15C5.19654 54.1541 5.2656 54.133 5.32148 54.0905H5.44324V55.4765H5.27115C5.07146 54.54 4.48915 54.072 3.52748 54.072C2.818 54.072 2.25626 54.336 1.84226 54.8602C1.45856 55.3505 1.26861 55.9653 1.26861 56.7033C1.26861 57.5105 1.50619 58.1455 1.98837 58.6091C2.42402 59.0318 2.91866 59.2407 3.47066 59.2407C3.90414 59.2407 4.33275 59.1327 4.77002 58.914V57.8345C4.77002 57.5836 4.71861 57.4118 4.61687 57.3196C4.51729 57.2269 4.33979 57.1811 4.0903 57.1811H3.77263V57.0262H6.0683V57.1811ZM13.0441 59.4136C12.9212 59.4191 12.8005 59.4213 12.6863 59.4213C12.1798 59.4213 11.7783 59.3525 11.4741 59.2167C11.1873 59.0902 10.8388 58.8147 10.4145 58.3915L9.85546 57.8264C9.48204 57.4544 9.18981 57.1985 8.97658 57.0605C8.78569 57.0705 8.59462 57.0765 8.40348 57.0785C8.29091 57.0785 8.14642 57.0736 7.97108 57.0605V58.5109C7.97108 58.8305 8.06146 59.0269 8.25087 59.0989C8.34611 59.1349 8.47546 59.1551 8.64484 59.1551H8.83913V59.3171H6.43793V59.1551H6.58458C6.84868 59.1551 7.02835 59.1038 7.12035 59.0018C7.21668 58.8993 7.26214 58.7138 7.26214 58.4427V54.834C7.26214 54.5798 7.21993 54.4004 7.13063 54.2989C7.04458 54.1991 6.87411 54.1505 6.62355 54.1505H6.43793V53.9869C6.54724 53.9869 6.79943 53.9744 7.1815 53.9515C7.27837 53.9487 7.38661 53.9405 7.50891 53.9351C7.86627 53.9204 8.22388 53.9128 8.58153 53.9122C9.33647 53.9122 9.90849 54.054 10.3014 54.3398C10.6715 54.6093 10.8593 54.9731 10.8593 55.4329C10.8593 55.7744 10.7516 56.0716 10.5336 56.3215C10.3339 56.5582 10.0638 56.724 9.7272 56.8249C9.9848 57.0289 10.3095 57.3224 10.6959 57.7145L11.3724 58.3915C11.7241 58.7487 12.077 58.9936 12.4309 59.1289C12.6285 59.2001 12.8348 59.2436 13.0441 59.2582V59.4136ZM10.0584 55.4885C10.0584 54.882 9.8376 54.4724 9.38626 54.2542C9.14489 54.1347 8.81261 54.0731 8.39103 54.0731C8.21028 54.0731 8.06795 54.0785 7.97108 54.0905V56.8996C8.06633 56.9127 8.24167 56.9182 8.49602 56.9182C9.53941 56.9182 10.0584 56.4409 10.0584 55.4885ZM19.6372 56.5036C19.6372 57.3551 19.3439 58.0598 18.7583 58.6167C18.1668 59.1758 17.4536 59.4545 16.6126 59.4545C16.0768 59.4545 15.5779 59.3493 15.1227 59.1404C14.6357 58.9135 14.2482 58.59 13.9619 58.1662C13.6848 57.7598 13.5452 57.2945 13.5452 56.7725C13.5452 56.2211 13.6772 55.722 13.9348 55.2758C14.2007 54.8255 14.5904 54.4625 15.0567 54.2307C15.5302 53.9809 16.0617 53.8576 16.6553 53.8576C17.4747 53.8576 18.1787 54.108 18.7648 54.6153C19.3439 55.1204 19.6372 55.7493 19.6372 56.5036ZM18.8395 56.7878C18.8395 55.9942 18.6133 55.3435 18.1647 54.8335C17.7171 54.3284 17.1386 54.0731 16.434 54.0731C15.7564 54.0731 15.2277 54.3425 14.8435 54.882C14.509 55.3549 14.338 55.8965 14.338 56.5036C14.338 56.9989 14.4414 57.4516 14.6405 57.864C14.8538 58.3036 15.1568 58.6462 15.554 58.89C15.9252 59.1234 16.3548 59.2451 16.7923 59.2407C17.6619 59.2407 18.2659 58.8207 18.609 57.9807C18.7621 57.602 18.8404 57.1968 18.8395 56.7878ZM26.7218 54.15C26.442 54.1565 26.2461 54.2187 26.127 54.3393C26.0085 54.4576 25.949 54.6567 25.949 54.936V57.2487C25.949 57.7255 25.8277 58.1405 25.5934 58.4918C25.3558 58.8436 25.0192 59.1016 24.5901 59.2653C24.2637 59.3913 23.879 59.454 23.4336 59.454C22.6489 59.454 22.04 59.2467 21.6028 58.8305C21.1844 58.4416 20.9755 57.9289 20.9755 57.2967V54.7936C20.9755 54.4604 20.889 54.2613 20.7104 54.2062C20.6124 54.1735 20.4598 54.1565 20.2439 54.15V53.9869H22.4297V54.15H22.3528C22.1099 54.15 21.9378 54.1936 21.8366 54.2831C21.7327 54.3715 21.6807 54.5356 21.6807 54.7767V57.1582C21.6807 57.7587 21.856 58.2185 22.2067 58.5431C22.5455 58.8524 23.0201 59.0067 23.6224 59.0067C24.9131 59.0067 25.5599 58.3876 25.5599 57.1495V55.1547C25.5599 54.6409 25.4641 54.3393 25.2736 54.2471C25.1632 54.1953 24.9797 54.1631 24.7259 54.15V53.9869H26.7218V54.15Z" fill="#1B1A19"/>
</g>
<path fill-rule="evenodd" clip-rule="evenodd" d="M31.3046 55.4275C31.3046 55.9789 31.0875 56.4006 30.6584 56.6886C30.2861 56.9373 29.8142 57.0611 29.2492 57.0611C28.9937 57.0611 28.7507 57.0393 28.5245 56.9951V58.4935C28.5245 58.7438 28.5781 58.9168 28.6788 59.0117C28.7773 59.1066 28.9537 59.1551 29.2021 59.1551H29.4862V59.3177H27.1326V59.1551H27.2474C27.4611 59.1551 27.6089 59.1257 27.6841 59.0668C27.7761 58.9986 27.8194 58.8611 27.8194 58.656V54.6055C27.8194 54.3011 27.6873 54.1506 27.42 54.1506H26.9946V53.9869C27.4611 53.9629 27.8156 53.9482 28.0678 53.9351C28.4181 53.9216 28.7687 53.9138 29.1193 53.9117C29.9327 53.9117 30.5139 54.0753 30.8689 54.4064C31.1584 54.6753 31.3046 55.0168 31.3046 55.4275ZM30.5085 55.4008C30.5085 54.5171 30.0436 54.0731 29.1123 54.0731C28.8584 54.0731 28.6625 54.0851 28.5245 54.108V56.8331C28.7188 56.8773 28.8698 56.8997 28.9829 56.8997C29.6112 56.8997 30.0582 56.658 30.3223 56.1715C30.4484 55.9435 30.5085 55.6866 30.5085 55.4008Z" fill="#1B1A19"/>
<mask id="mask1_1755_44" style="mask-type:alpha" maskUnits="userSpaceOnUse" x="33" y="53" width="13" height="7">
<path d="M33.7197 59.4218H45.526V53.8576H33.7197V59.4218Z" fill="white"/>
</mask>
<g mask="url(#mask1_1755_44)">
<path fill-rule="evenodd" clip-rule="evenodd" d="M39.3994 59.3176H37.0642V59.1556H37.2823C37.4852 59.1556 37.6254 59.1442 37.7001 59.1289C37.8635 59.0902 37.9485 59.0018 37.9485 58.8638C37.9485 58.7924 37.9144 58.674 37.8554 58.5104L37.2823 56.9542H35.5235L35.0315 58.2965C34.9195 58.6096 34.8627 58.788 34.8627 58.8349C34.8627 59.0493 35.0921 59.1556 35.55 59.1556H35.6842V59.3176H33.7197V59.1556C34.0661 59.1425 34.2885 59.0509 34.3935 58.8736C34.4611 58.7596 34.5407 58.5693 34.6365 58.3036L36.188 54.0453L36.1123 53.8582H36.8477L38.6277 58.6145C38.7305 58.8938 38.8717 59.0602 39.0438 59.1131C39.1315 59.1404 39.25 59.1556 39.3994 59.1556V59.3176ZM37.1345 56.5767L36.3883 54.5755L35.6669 56.5767H37.1345ZM45.526 57.1811C45.1337 57.2084 44.9351 57.3889 44.9351 57.7233V58.914C44.2489 59.2751 43.489 59.4545 42.6562 59.4545C42.1269 59.4545 41.6555 59.3362 41.2356 59.1038C40.8007 58.8611 40.4512 58.4883 40.2355 58.0369C40.0348 57.6406 39.9307 57.2017 39.9319 56.7567C39.9319 56.0198 40.17 55.3675 40.6522 54.8035C41.1825 54.1735 41.9332 53.8576 42.8921 53.8576C43.3245 53.8576 43.8137 53.9351 44.3549 54.0905C44.4897 54.1298 44.5681 54.15 44.5871 54.15C44.6567 54.1543 44.7254 54.1332 44.7808 54.0905H44.901V55.4765H44.7321C44.5319 54.54 43.9517 54.072 42.9879 54.072C42.2768 54.072 41.7167 54.336 41.3011 54.8602C40.9195 55.3505 40.7242 55.9653 40.7242 56.7033C40.7242 57.5105 40.9661 58.1455 41.4477 58.6091C41.8834 59.0318 42.3758 59.2407 42.93 59.2407C43.3624 59.2407 43.7937 59.1327 44.2299 58.914V57.8345C44.2299 57.5836 44.1807 57.4118 44.0757 57.3196C43.9745 57.2269 43.7986 57.1811 43.5469 57.1811H43.2314V57.0262H45.526V57.1811Z" fill="#1B1A19"/>
</g>
</g>
<defs>
<clipPath id="clip0_1755_44">
<rect width="46" height="60" fill="white"/>
</clipPath>
</defs>
</svg>
